<svg version="1.1" id="Layer_1" xmlns="http://www.w3.org/2000/svg" xmlns:xlink="http://www.w3.org/1999/xlink" x="0px" y="0px"
	 width="100%" viewBox="0 0 354 70" enable-background="new 0 0 354 70" xml:space="preserve">
<path fill="#000000" opacity="1.000000" stroke="none" 
	d="
M86.000000,71.000000 
	C63.645771,71.000000 41.291542,71.000000 18.165489,70.692307 
	C22.216349,68.244034 27.089849,66.209595 31.846989,63.932098 
	C36.326214,61.787647 40.682777,59.386974 45.499443,57.054630 
	C49.240810,56.903606 50.210171,55.155087 50.068787,51.925011 
	C49.821922,46.285065 49.640602,40.595619 50.122753,34.986309 
	C50.460445,31.057661 48.621090,29.433531 45.549168,28.193687 
	C34.946407,23.914358 24.304237,19.727022 13.778154,15.266145 
	C9.558249,13.477780 5.635285,10.737289 1.000000,14.000000 
	C1.000000,9.675979 1.000000,5.351958 1.000000,1.000000 
	C64.354225,1.000000 127.708450,1.000000 191.871307,1.331746 
	C190.593903,2.328979 188.507843,2.994467 186.003403,3.793431 
	C186.003403,19.605490 185.670227,35.751713 186.188309,51.870579 
	C186.364151,57.341301 187.860641,63.314587 193.740295,66.145576 
	C202.185562,70.211868 210.617111,69.497993 218.786850,65.614578 
	C218.470520,63.809742 218.283569,62.210827 217.892792,60.663383 
	C217.503067,59.120163 216.909058,57.628532 216.358810,55.976795 
	C214.703171,56.593636 213.091003,57.357037 211.394958,57.797466 
	C204.735168,59.526878 199.548370,57.327419 199.169678,51.928089 
	C198.639954,44.375336 199.036057,36.757648 199.036057,28.724873 
	C205.424271,28.724873 211.168488,28.724873 216.778168,28.724873 
	C216.778168,24.978441 216.778168,21.694429 216.778168,17.958103 
	C210.831100,17.958103 205.089371,17.958103 199.000000,17.958103 
	C199.000000,12.000007 199.000000,6.500003 199.000000,1.000000 
	C220.687561,1.000000 242.375122,1.000000 264.869751,1.323505 
	C264.498230,2.355818 263.319641,3.064625 262.368286,3.636777 
	C262.368286,6.814355 262.368286,9.844150 262.368286,12.661819 
	C266.772705,12.661819 270.803925,12.661819 275.000000,12.661819 
	C275.000000,8.550362 275.000000,4.775181 275.000000,1.000000 
	C301.553986,1.000000 328.107941,1.000000 355.000000,1.000000 
	C355.000000,8.684235 355.000000,16.373426 354.759613,24.861267 
	C351.518036,23.440720 348.817291,20.391382 345.453522,19.173971 
	C338.302856,16.585991 331.015930,17.658258 323.968903,20.470268 
	C322.713531,20.971209 320.894196,21.414543 319.849823,20.879719 
	C308.894623,15.269614 298.014282,18.329397 287.262817,20.142572 
	C287.262817,36.463264 287.262817,52.064945 287.262817,67.707664 
	C291.261993,67.707664 294.992096,67.707664 299.112488,67.707664 
	C299.112488,54.658920 299.112488,41.897343 299.112488,29.269663 
	C310.193817,25.827719 315.667938,29.662165 315.091644,40.946056 
	C314.636597,49.856606 315.000153,58.808956 315.000153,67.671890 
	C319.665222,67.671890 323.728241,67.671890 327.007050,67.671890 
	C327.007050,55.942520 326.985931,44.548580 327.042847,33.155029 
	C327.048035,32.122204 327.219910,30.725050 327.882874,30.118633 
	C333.021515,25.418587 341.487061,28.010580 342.981110,34.710815 
	C343.508240,37.074570 343.922302,39.516201 343.954773,41.928104 
	C344.070496,50.531696 344.000000,59.137794 344.000000,68.000000 
	C348.050201,68.000000 351.525085,68.000000 355.000000,68.000000 
	C355.000000,68.998367 355.000000,69.996727 355.000000,70.997543 
	C266.979095,71.000000 178.958206,71.000000 90.595650,70.609238 
	C91.155861,69.326836 92.884827,68.382065 92.831482,67.551811 
	C92.307541,59.397083 94.858131,51.005184 91.473450,43.045258 
	C94.899811,40.544659 100.925156,41.869701 101.303490,36.141056 
	C101.769936,29.078157 101.944954,21.973854 101.666344,14.910306 
	C101.629044,13.964767 97.717064,11.944253 96.421028,12.465294 
	C82.827850,17.930134 69.361481,23.720808 55.989769,29.710936 
	C54.570267,30.346832 53.245514,32.778473 53.134640,34.459969 
	C52.774773,39.917770 53.285133,45.433594 52.913086,50.889755 
	C52.594334,55.564323 54.011234,57.818302 58.961941,57.467194 
	C59.717369,58.426006 60.325752,59.241623 61.132843,59.572414 
	C68.918442,62.763367 76.749329,65.844063 84.525246,69.057961 
	C85.173622,69.325951 85.515640,70.335167 86.000000,71.000000 
M169.719955,68.000023 
	C172.629868,68.000023 175.539764,68.000023 179.859329,68.000023 
	C173.155991,58.643017 167.141266,50.247234 161.085052,41.793541 
	C166.643982,34.096859 172.260056,26.321058 178.269745,18.000261 
	C175.376419,18.000261 173.520096,18.194605 171.718674,17.962587 
	C166.958267,17.349461 163.408279,18.311640 161.075119,23.206179 
	C159.466721,26.580296 156.564880,29.337856 153.709946,33.064262 
	C148.132782,23.430689 143.327164,13.597124 129.948669,18.949253 
	C134.793777,25.630219 139.432648,32.476807 144.587646,38.909790 
	C146.601746,41.423203 146.669205,43.181564 144.887985,45.481838 
	C141.394562,49.993244 137.817795,54.446129 134.489655,59.077126 
	C132.636490,61.655739 131.214447,64.544182 129.182373,68.000023 
	C132.188751,68.000023 133.897156,67.739067 135.495132,68.048477 
	C140.484070,69.014450 143.458206,66.695152 145.860901,62.609646 
	C148.042709,58.899757 150.694595,55.466320 153.518478,51.359478 
	C157.143951,56.321239 160.587845,60.483078 163.358612,65.053047 
	C164.800873,67.431824 166.261856,68.387596 169.719955,68.000023 
M251.872803,28.360157 
	C252.576645,28.002935 253.867340,27.680136 253.890640,27.282991 
	C254.063416,24.337355 253.984314,21.376940 253.984314,17.445179 
	C244.671097,18.165913 235.845932,18.848879 227.245911,19.514420 
	C227.245911,36.426525 227.245911,52.027119 227.245911,67.726089 
	C231.558304,67.726089 235.620316,67.726089 240.133041,67.726089 
	C240.133041,54.389744 240.133041,41.320175 240.133041,28.042240 
	C244.062805,28.042240 247.537674,28.042240 251.872803,28.360157 
M262.000000,59.452309 
	C262.000000,62.217587 262.000000,64.982864 262.000000,67.685547 
	C266.652954,67.685547 270.708832,67.685547 274.705261,67.685547 
	C274.705261,51.000683 274.705261,34.631947 274.705261,18.000301 
	C272.109528,18.000301 269.777679,18.231054 267.508728,17.951294 
	C263.062042,17.403019 261.801666,19.196516 261.905670,23.558525 
	C262.182983,35.187164 262.000000,46.826778 262.000000,59.452309 
z"/>
<path fill="#FFCF00" opacity="1.000000" stroke="none" 
	d="
M355.000000,67.531342 
	C351.525085,68.000000 348.050201,68.000000 344.000000,68.000000 
	C344.000000,59.137794 344.070496,50.531696 343.954773,41.928104 
	C343.922302,39.516201 343.508240,37.074570 342.981110,34.710815 
	C341.487061,28.010580 333.021515,25.418587 327.882874,30.118633 
	C327.219910,30.725050 327.048035,32.122204 327.042847,33.155029 
	C326.985931,44.548580 327.007050,55.942520 327.007050,67.671890 
	C323.728241,67.671890 319.665222,67.671890 315.000153,67.671890 
	C315.000153,58.808956 314.636597,49.856606 315.091644,40.946056 
	C315.667938,29.662165 310.193817,25.827719 299.112488,29.269663 
	C299.112488,41.897343 299.112488,54.658920 299.112488,67.707664 
	C294.992096,67.707664 291.261993,67.707664 287.262817,67.707664 
	C287.262817,52.064945 287.262817,36.463264 287.262817,20.142572 
	C298.014282,18.329397 308.894623,15.269614 319.849823,20.879719 
	C320.894196,21.414543 322.713531,20.971209 323.968903,20.470268 
	C331.015930,17.658258 338.302856,16.585991 345.453522,19.173971 
	C348.817291,20.391382 351.518036,23.440720 354.759613,25.329960 
	C355.000000,39.020893 355.000000,53.041790 355.000000,67.531342 
z"/>
<path fill="#FFCF00" opacity="1.000000" stroke="none" 
	d="
M1.000000,14.468636 
	C5.635285,10.737289 9.558249,13.477780 13.778154,15.266145 
	C24.304237,19.727022 34.946407,23.914358 45.549168,28.193687 
	C48.621090,29.433531 50.460445,31.057661 50.122753,34.986309 
	C49.640602,40.595619 49.821922,46.285065 50.068787,51.925011 
	C50.210171,55.155087 49.240810,56.903606 45.172848,56.900181 
	C33.592510,52.224464 22.744913,47.658806 11.567739,42.930870 
	C7.825442,41.179066 4.412721,39.589535 1.000000,38.000000 
	C1.000000,30.312424 1.000000,22.624847 1.000000,14.468636 
z"/>
<path fill="#FFCF00" opacity="1.000000" stroke="none" 
	d="
M198.562500,1.000000 
	C199.000000,6.500003 199.000000,12.000007 199.000000,17.958103 
	C205.089371,17.958103 210.831100,17.958103 216.778168,17.958103 
	C216.778168,21.694429 216.778168,24.978441 216.778168,28.724873 
	C211.168488,28.724873 205.424271,28.724873 199.036057,28.724873 
	C199.036057,36.757648 198.639954,44.375336 199.169678,51.928089 
	C199.548370,57.327419 204.735168,59.526878 211.394958,57.797466 
	C213.091003,57.357037 214.703171,56.593636 216.358810,55.976795 
	C216.909058,57.628532 217.503067,59.120163 217.892792,60.663383 
	C218.283569,62.210827 218.470520,63.809742 218.786850,65.614578 
	C210.617111,69.497993 202.185562,70.211868 193.740295,66.145576 
	C187.860641,63.314587 186.364151,57.341301 186.188309,51.870579 
	C185.670227,35.751713 186.003403,19.605490 186.003403,3.793431 
	C188.507843,2.994467 190.593903,2.328979 192.339966,1.331746 
	C194.041672,1.000000 196.083328,1.000000 198.562500,1.000000 
z"/>
<path fill="#C7931D" opacity="1.000000" stroke="none" 
	d="
M11.897314,43.093147 
	C22.744913,47.658806 33.592510,52.224464 44.766708,56.944576 
	C40.682777,59.386974 36.326214,61.787647 31.846989,63.932098 
	C27.089849,66.209595 22.216349,68.244034 17.696831,70.692307 
	C15.958333,71.000000 13.916667,71.000000 11.684127,70.623138 
	C8.913611,61.154839 9.278159,52.107216 11.897314,43.093147 
z"/>
<path fill="#C7931D" opacity="1.000000" stroke="none" 
	d="
M91.101280,43.093681 
	C94.858131,51.005184 92.307541,59.397083 92.831482,67.551811 
	C92.884827,68.382065 91.155861,69.326836 90.126991,70.609238 
	C88.933327,71.000000 87.866661,71.000000 86.399994,71.000000 
	C85.515640,70.335167 85.173622,69.325951 84.525246,69.057961 
	C76.749329,65.844063 68.918442,62.763367 61.132843,59.572414 
	C60.325752,59.241623 59.717369,58.426006 59.272400,57.302170 
	C70.052437,52.210552 80.576859,47.652115 91.101280,43.093681 
z"/>
<path fill="#000000" opacity="1.000000" stroke="none" 
	d="
M11.567739,42.930874 
	C9.278159,52.107216 8.913611,61.154839 11.246627,70.623138 
	C7.700966,71.000000 4.401932,71.000000 1.000000,71.000000 
	C1.000000,60.312614 1.000000,49.624966 1.000000,38.468658 
	C4.412721,39.589535 7.825442,41.179066 11.567739,42.930874 
z"/>
<path fill="#FFCF00" opacity="1.000000" stroke="none" 
	d="
M274.545898,1.000000 
	C275.000000,4.775181 275.000000,8.550362 275.000000,12.661819 
	C270.803925,12.661819 266.772705,12.661819 262.368286,12.661819 
	C262.368286,9.844150 262.368286,6.814355 262.368286,3.636777 
	C263.319641,3.064625 264.498230,2.355818 265.338409,1.323505 
	C268.030609,1.000000 271.061188,1.000000 274.545898,1.000000 
z"/>
<path fill="#FFCF00" opacity="1.000000" stroke="none" 
	d="
M91.473450,43.045258 
	C80.576859,47.652115 70.052437,52.210552 59.217552,56.934010 
	C54.011234,57.818302 52.594334,55.564323 52.913086,50.889755 
	C53.285133,45.433594 52.774773,39.917770 53.134640,34.459969 
	C53.245514,32.778473 54.570267,30.346832 55.989769,29.710936 
	C69.361481,23.720808 82.827850,17.930134 96.421028,12.465294 
	C97.717064,11.944253 101.629044,13.964767 101.666344,14.910306 
	C101.944954,21.973854 101.769936,29.078157 101.303490,36.141056 
	C100.925156,41.869701 94.899811,40.544659 91.473450,43.045258 
z"/>
<path fill="#FFCF00" opacity="1.000000" stroke="none" 
	d="
M169.276154,68.000015 
	C166.261856,68.387596 164.800873,67.431824 163.358612,65.053047 
	C160.587845,60.483078 157.143951,56.321239 153.518478,51.359478 
	C150.694595,55.466320 148.042709,58.899757 145.860901,62.609646 
	C143.458206,66.695152 140.484070,69.014450 135.495132,68.048477 
	C133.897156,67.739067 132.188751,68.000023 129.182373,68.000023 
	C131.214447,64.544182 132.636490,61.655739 134.489655,59.077126 
	C137.817795,54.446129 141.394562,49.993244 144.887985,45.481838 
	C146.669205,43.181564 146.601746,41.423203 144.587646,38.909790 
	C139.432648,32.476807 134.793777,25.630219 129.948669,18.949253 
	C143.327164,13.597124 148.132782,23.430689 153.709946,33.064262 
	C156.564880,29.337856 159.466721,26.580296 161.075119,23.206179 
	C163.408279,18.311640 166.958267,17.349461 171.718674,17.962587 
	C173.520096,18.194605 175.376419,18.000261 178.269745,18.000261 
	C172.260056,26.321058 166.643982,34.096859 161.085052,41.793541 
	C167.141266,50.247234 173.155991,58.643017 179.859329,68.000023 
	C175.539764,68.000023 172.629868,68.000023 169.276154,68.000015 
z"/>
<path fill="#FFCF00" opacity="1.000000" stroke="none" 
	d="
M251.442673,28.201199 
	C247.537674,28.042240 244.062805,28.042240 240.133041,28.042240 
	C240.133041,41.320175 240.133041,54.389744 240.133041,67.726089 
	C235.620316,67.726089 231.558304,67.726089 227.245911,67.726089 
	C227.245911,52.027119 227.245911,36.426525 227.245911,19.514420 
	C235.845932,18.848879 244.671097,18.165913 253.984314,17.445179 
	C253.984314,21.376940 254.063416,24.337355 253.890640,27.282991 
	C253.867340,27.680136 252.576645,28.002935 251.442673,28.201199 
z"/>
<path fill="#FFCF00" opacity="1.000000" stroke="none" 
	d="
M262.000000,58.957169 
	C262.000000,46.826778 262.182983,35.187164 261.905670,23.558525 
	C261.801666,19.196516 263.062042,17.403019 267.508728,17.951294 
	C269.777679,18.231054 272.109528,18.000301 274.705261,18.000301 
	C274.705261,34.631947 274.705261,51.000683 274.705261,67.685547 
	C270.708832,67.685547 266.652954,67.685547 262.000000,67.685547 
	C262.000000,64.982864 262.000000,62.217587 262.000000,58.957169 
z"/>
</svg>